<svg width="70" height="50" viewBox="0 0 70 50" fill="none" xmlns="http://www.w3.org/2000/svg">
<path d="M13.9998 7.5H2.72978C1.43478 7.5 0.139778 8.62 0.314778 10.44L5.77478 45.405C5.77478 45.405 12.2498 19.645 13.5098 13.45C13.8948 11.595 15.6448 11 16.9398 11H34.9998C34.9998 11 32.5498 3.72 32.3048 2.915C31.8848 1.375 31.1148 0.5 29.5748 0.5H17.9898C16.7298 0.5 15.5398 1.305 15.1898 2.74C14.8748 4.14 13.9998 7.5 13.9998 7.5ZM31.0798 7.5H17.0798C17.0798 7.5 18.5498 4 20.1248 4H27.5798C29.2598 4 31.0798 7.5 31.0798 7.5ZM9.34478 46.875C8.25978 48.52 6.68478 49.5 4.93478 49.5H59.9898C61.8798 49.5 63.2098 48.415 63.5948 46.595C65.1348 38.93 69.4748 17.055 69.4748 17.055C69.7198 15.305 68.4248 14.5 67.3048 14.5H55.9998V9.355C55.9998 8.795 55.0898 7.5 53.6898 7.5H40.5298C38.7098 7.5 37.4848 9.53 37.4848 9.53L34.9998 14.5H19.5648C18.4448 14.5 17.3598 15.165 17.1498 16.25C17.1498 16.25 11.5848 39.7 11.1298 41.905C10.8848 43.2 10.3598 45.37 9.34478 46.875ZM53.8298 14.5H38.4998C38.4998 14.5 40.5298 11 42.4548 11H50.4698C52.9548 11 53.8298 14.5 53.8298 14.5Z" fill="#E0DFDC"/>
</svg>
