<svg width="30" height="30" viewBox="0 0 30 30" fill="none" xmlns="http://www.w3.org/2000/svg">
<path d="M11.0625 8.25C11.0625 8.58376 10.9635 8.91002 10.7781 9.18752C10.5927 9.46503 10.3291 9.68132 10.0208 9.80905C9.71243 9.93677 9.37313 9.97019 9.04578 9.90508C8.71844 9.83996 8.41776 9.67924 8.18176 9.44324C7.94576 9.20724 7.78504 8.90656 7.71992 8.57922C7.65481 8.25187 7.68823 7.91257 7.81595 7.60422C7.94368 7.29587 8.15997 7.03232 8.43748 6.84689C8.71498 6.66147 9.04124 6.5625 9.375 6.5625C9.82255 6.5625 10.2518 6.74029 10.5682 7.05676C10.8847 7.37322 11.0625 7.80245 11.0625 8.25ZM29.0625 3.1875V26.8125C29.0625 27.4092 28.8254 27.9815 28.4035 28.4035C27.9815 28.8254 27.4092 29.0625 26.8125 29.0625H3.1875C2.59076 29.0625 2.01847 28.8254 1.59651 28.4035C1.17455 27.9815 0.9375 27.4092 0.9375 26.8125V3.1875C0.9375 2.59076 1.17455 2.01847 1.59651 1.59651C2.01847 1.17455 2.59076 0.9375 3.1875 0.9375H26.8125C27.4092 0.9375 27.9815 1.17455 28.4035 1.59651C28.8254 2.01847 29.0625 2.59076 29.0625 3.1875ZM26.8125 26.8125V3.1875H3.1875V26.8125H26.8125ZM9.375 11.625C9.07663 11.625 8.79048 11.7435 8.5795 11.9545C8.36853 12.1655 8.25 12.4516 8.25 12.75V21.75C8.25 22.0484 8.36853 22.3345 8.5795 22.5455C8.79048 22.7565 9.07663 22.875 9.375 22.875C9.67337 22.875 9.95952 22.7565 10.1705 22.5455C10.3815 22.3345 10.5 22.0484 10.5 21.75V12.75C10.5 12.4516 10.3815 12.1655 10.1705 11.9545C9.95952 11.7435 9.67337 11.625 9.375 11.625ZM17.8125 11.625C16.7997 11.6249 15.8102 11.9287 14.9719 12.4969C14.9104 12.2269 14.7515 11.9892 14.5256 11.829C14.2997 11.6689 14.0227 11.5977 13.7477 11.6291C13.4726 11.6604 13.2187 11.7921 13.0346 11.9989C12.8506 12.2057 12.7492 12.4731 12.75 12.75V21.75C12.75 22.0484 12.8685 22.3345 13.0795 22.5455C13.2905 22.7565 13.5766 22.875 13.875 22.875C14.1734 22.875 14.4595 22.7565 14.6705 22.5455C14.8815 22.3345 15 22.0484 15 21.75V16.6875C15 15.9416 15.2963 15.2262 15.8238 14.6988C16.3512 14.1713 17.0666 13.875 17.8125 13.875C18.5584 13.875 19.2738 14.1713 19.8012 14.6988C20.3287 15.2262 20.625 15.9416 20.625 16.6875V21.75C20.625 22.0484 20.7435 22.3345 20.9545 22.5455C21.1655 22.7565 21.4516 22.875 21.75 22.875C22.0484 22.875 22.3345 22.7565 22.5455 22.5455C22.7565 22.3345 22.875 22.0484 22.875 21.75V16.6875C22.875 15.3448 22.3416 14.0572 21.3922 13.1078C20.4428 12.1584 19.1552 11.625 17.8125 11.625Z" fill="white"/>
</svg>
