<svg width="100" height="100" viewBox="0 0 100 100" fill="none" xmlns="http://www.w3.org/2000/svg">
<path d="M90.6251 36.2109L63.7892 9.37496C62.6125 8.21558 61.027 7.56567 59.3751 7.56567C57.7232 7.56567 56.1377 8.21558 54.961 9.37496L45.1563 19.1797L22.461 27.6953C21.4392 28.0789 20.5366 28.725 19.8439 29.5685C19.1513 30.412 18.6932 31.4231 18.5157 32.5L9.41415 86.9922C9.33333 87.4407 9.35285 87.9015 9.47131 88.3415C9.58976 88.7816 9.80421 89.19 10.0993 89.5373C10.3943 89.8846 10.7626 90.1623 11.1777 90.3503C11.5928 90.5384 12.0444 90.6322 12.5001 90.625H13.0079L67.5001 81.5625C68.577 81.3703 69.5858 80.9022 70.4279 80.2039C71.2699 79.5056 71.9166 78.6009 72.3048 77.5781L80.8204 54.8828L90.6251 45.039C91.7845 43.8624 92.4344 42.2768 92.4344 40.625C92.4344 38.9731 91.7845 37.3875 90.6251 36.2109V36.2109ZM66.4454 75.3515L21.6016 82.8125L40.1173 64.2968C41.7064 65.1781 43.4955 65.6355 45.3126 65.625C47.4758 65.625 49.5905 64.9835 51.3891 63.7817C53.1878 62.5798 54.5897 60.8716 55.4175 58.8731C56.2454 56.8745 56.462 54.6753 56.0399 52.5537C55.6179 50.432 54.5762 48.4831 53.0466 46.9535C51.5169 45.4239 49.5681 44.3822 47.4464 43.9601C45.3247 43.5381 43.1256 43.7547 41.127 44.5825C39.1284 45.4104 37.4202 46.8123 36.2184 48.6109C35.0166 50.4096 34.3751 52.5242 34.3751 54.6875C34.3646 56.5045 34.822 58.2937 35.7032 59.8828L17.1876 78.3984L24.6485 33.5547L46.0938 25.5078L74.4923 53.9062L66.4454 75.3515ZM40.6251 54.6875C40.6251 53.7604 40.9 52.8541 41.4151 52.0832C41.9301 51.3124 42.6622 50.7116 43.5188 50.3568C44.3753 50.002 45.3178 49.9092 46.2271 50.09C47.1364 50.2709 47.9716 50.7173 48.6272 51.3729C49.2827 52.0285 49.7292 52.8637 49.91 53.773C50.0909 54.6823 49.9981 55.6248 49.6433 56.4813C49.2885 57.3378 48.6877 58.0699 47.9168 58.585C47.146 59.1 46.2397 59.375 45.3126 59.375C44.0694 59.375 42.8771 58.8811 41.998 58.002C41.1189 57.123 40.6251 55.9307 40.6251 54.6875ZM78.1251 48.7109L51.2892 21.875L59.3751 13.789L86.211 40.625L78.1251 48.7109Z" fill="white"/>
</svg>
