<svg width="100" height="101" viewBox="0 0 100 101" fill="none" xmlns="http://www.w3.org/2000/svg">
<path d="M34.3913 34.227C38.4205 34.227 41.683 37.4895 41.683 41.5186V81.102C41.683 83.0358 40.9148 84.8905 39.5473 86.258C38.1799 87.6254 36.3252 88.3936 34.3913 88.3936H15.6247C13.6908 88.3936 11.8361 87.6254 10.4687 86.258C9.10124 84.8905 8.33301 83.0358 8.33301 81.102V41.5186C8.33301 37.4895 11.5997 34.227 15.6247 34.227H34.3913ZM34.3913 40.477H15.6247C15.3484 40.477 15.0835 40.5867 14.8881 40.7821C14.6928 40.9774 14.583 41.2424 14.583 41.5186V81.102C14.583 81.677 15.0497 82.1436 15.6247 82.1436H34.3913C34.6676 82.1436 34.9326 82.0339 35.1279 81.8385C35.3233 81.6432 35.433 81.3782 35.433 81.102V41.5186C35.433 41.2424 35.3233 40.9774 35.1279 40.7821C34.9326 40.5867 34.6676 40.477 34.3913 40.477ZM26.0497 71.7145C26.8414 71.7147 27.6036 72.0155 28.1821 72.556C28.7607 73.0966 29.1125 73.8365 29.1664 74.6265C29.2204 75.4164 28.9725 76.1974 28.4729 76.8116C27.9732 77.4258 27.259 77.8274 26.4747 77.9353L26.0497 77.9645H23.9663C23.1689 77.9726 22.3986 77.6755 21.8131 77.1342C21.2276 76.5928 20.8711 75.8481 20.8168 75.0525C20.7625 74.2569 21.0144 73.4706 21.5209 72.8547C22.0274 72.2388 22.7502 71.8398 23.5413 71.7395L23.9663 71.7145H26.0497ZM88.5372 69.6311C89.3289 69.6314 90.0911 69.9322 90.6696 70.4727C91.2482 71.0132 91.6 71.7532 91.6539 72.5431C91.7079 73.3331 91.46 74.114 90.9604 74.7282C90.4607 75.3424 89.7465 75.7441 88.9622 75.852L88.5413 75.8811L45.833 75.8728V69.6228H88.5413L88.5372 69.6311ZM76.0413 21.7145C80.0663 21.7145 83.333 24.9811 83.333 29.0061V60.2561C83.333 62.19 82.5648 64.0447 81.1973 65.4121C79.8299 66.7796 77.9752 67.5478 76.0413 67.5478H45.833V61.2978H76.0413C76.3176 61.2978 76.5826 61.1881 76.7779 60.9927C76.9733 60.7974 77.083 60.5324 77.083 60.2561V29.0061C77.083 28.7299 76.9733 28.4649 76.7779 28.2696C76.5826 28.0742 76.3176 27.9645 76.0413 27.9645H23.958C23.6817 27.9645 23.4168 28.0742 23.2214 28.2696C23.0261 28.4649 22.9163 28.7299 22.9163 29.0061L22.9122 30.0436H16.6663V29.0061C16.6663 24.9811 19.933 21.7145 23.958 21.7145H76.0413Z" fill="#E0DFDC"/>
</svg>
