<svg width="100" height="100" viewBox="0 0 100 100" fill="none" xmlns="http://www.w3.org/2000/svg">
<path fill-rule="evenodd" clip-rule="evenodd" d="M48.425 6.67501C48.903 6.39607 49.4465 6.24908 50 6.24908C50.5535 6.24908 51.097 6.39607 51.575 6.67501L60.95 12.1458C61.6433 12.5745 62.1417 13.257 62.3389 14.0479C62.5361 14.8388 62.4165 15.6755 62.0055 16.3794C61.5946 17.0834 60.9248 17.5989 60.1392 17.816C59.3535 18.0331 58.5141 17.9347 57.8 17.5417L50 12.9917L42.2 17.5417C41.8453 17.761 41.4503 17.907 41.0382 17.9713C40.6261 18.0355 40.2054 18.0167 39.8008 17.9158C39.3961 17.8149 39.0158 17.634 38.6821 17.3839C38.3484 17.1337 38.0682 16.8193 37.858 16.4591C37.6477 16.099 37.5117 15.7004 37.4579 15.2868C37.4041 14.8733 37.4336 14.4531 37.5447 14.0512C37.6557 13.6492 37.8462 13.2735 38.1047 12.9463C38.3632 12.6191 38.6846 12.3469 39.05 12.1458L48.425 6.67501ZM24.575 24.2083C24.9916 24.924 25.1071 25.7758 24.8962 26.5765C24.6853 27.3773 24.1651 28.0616 23.45 28.4792L18.7 31.25L23.45 34.0208C23.8154 34.2219 24.1368 34.4941 24.3953 34.8213C24.6538 35.1485 24.8443 35.5242 24.9553 35.9262C25.0664 36.3281 25.0959 36.7483 25.0421 37.1618C24.9883 37.5754 24.8523 37.974 24.642 38.3341C24.4318 38.6943 24.1516 39.0087 23.8179 39.2589C23.4842 39.509 23.1039 39.6899 22.6992 39.7908C22.2946 39.8917 21.8739 39.9105 21.4618 39.8463C21.0497 39.782 20.6547 39.636 20.3 39.4167L15.625 36.6917V40.625C15.625 41.4538 15.2958 42.2487 14.7097 42.8347C14.1237 43.4208 13.3288 43.75 12.5 43.75C11.6712 43.75 10.8763 43.4208 10.2903 42.8347C9.70424 42.2487 9.375 41.4538 9.375 40.625V31.25C9.37484 30.7038 9.51787 30.167 9.78983 29.6932C10.0618 29.2195 10.4532 28.8253 10.925 28.55L20.3 23.0833C20.6545 22.8764 21.0464 22.7414 21.4531 22.6859C21.8599 22.6304 22.2736 22.6557 22.6706 22.7601C23.0676 22.8646 23.4401 23.0463 23.7669 23.2948C24.0936 23.5433 24.3682 23.8537 24.575 24.2083ZM75.425 24.2083C75.6318 23.8537 75.9064 23.5433 76.2331 23.2948C76.5599 23.0463 76.9324 22.8646 77.3294 22.7601C77.7264 22.6557 78.1401 22.6304 78.5469 22.6859C78.9536 22.7414 79.3455 22.8764 79.7 23.0833L89.075 28.55C89.5468 28.8253 89.9382 29.2195 90.2102 29.6932C90.4821 30.167 90.6252 30.7038 90.625 31.25V40.625C90.625 41.4538 90.2958 42.2487 89.7097 42.8347C89.1237 43.4208 88.3288 43.75 87.5 43.75C86.6712 43.75 85.8763 43.4208 85.2903 42.8347C84.7042 42.2487 84.375 41.4538 84.375 40.625V36.6917L79.7 39.4167C79.3453 39.636 78.9503 39.782 78.5382 39.8463C78.1261 39.9105 77.7054 39.8917 77.3008 39.7908C76.8961 39.6899 76.5158 39.509 76.1821 39.2589C75.8484 39.0087 75.5682 38.6943 75.358 38.3341C75.1477 37.974 75.0117 37.5754 74.9579 37.1618C74.9041 36.7483 74.9336 36.3281 75.0447 35.9262C75.1557 35.5242 75.3462 35.1485 75.6047 34.8213C75.8632 34.4941 76.1846 34.2219 76.55 34.0208L81.3 31.25L76.55 28.4792C75.8349 28.0616 75.3147 27.3773 75.1038 26.5765C74.8929 25.7758 75.0084 24.924 75.425 24.2083ZM37.925 46.0833C38.1318 45.7287 38.4064 45.4183 38.7331 45.1698C39.0599 44.9213 39.4324 44.7396 39.8294 44.6351C40.2264 44.5307 40.6401 44.5054 41.0469 44.5609C41.4536 44.6164 41.8455 44.7514 42.2 44.9583L50 49.5083L57.8 44.9583C58.1547 44.739 58.5497 44.593 58.9618 44.5287C59.3739 44.4645 59.7946 44.4834 60.1992 44.5842C60.6039 44.6851 60.9842 44.866 61.3179 45.1162C61.6516 45.3663 61.9318 45.6808 62.142 46.0409C62.3523 46.4011 62.4883 46.7997 62.5421 47.2132C62.5959 47.6268 62.5664 48.0469 62.4553 48.4488C62.3442 48.8508 62.1538 49.2265 61.8953 49.5537C61.6368 49.8809 61.3154 50.1531 60.95 50.3542L53.125 54.9208V62.5C53.125 63.3288 52.7958 64.1237 52.2097 64.7097C51.6237 65.2958 50.8288 65.625 50 65.625C49.1712 65.625 48.3763 65.2958 47.7903 64.7097C47.2042 64.1237 46.875 63.3288 46.875 62.5V54.9167L39.05 50.3542C38.3349 49.9366 37.8147 49.2523 37.6038 48.4515C37.3929 47.6508 37.5084 46.799 37.925 46.0833ZM12.5 56.25C13.3288 56.25 14.1237 56.5793 14.7097 57.1653C15.2958 57.7514 15.625 58.5462 15.625 59.375V66.9583L23.45 71.5208C23.8154 71.7219 24.1368 71.9941 24.3953 72.3213C24.6538 72.6485 24.8443 73.0242 24.9553 73.4262C25.0664 73.8281 25.0959 74.2483 25.0421 74.6618C24.9883 75.0754 24.8523 75.474 24.642 75.8341C24.4318 76.1943 24.1516 76.5087 23.8179 76.7589C23.4842 77.009 23.1039 77.1899 22.6992 77.2908C22.2946 77.3917 21.8739 77.4105 21.4618 77.3463C21.0497 77.282 20.6547 77.136 20.3 76.9167L10.925 71.45C10.4532 71.1747 10.0618 70.7805 9.78983 70.3068C9.51787 69.833 9.37484 69.2963 9.375 68.75V59.375C9.375 58.5462 9.70424 57.7514 10.2903 57.1653C10.8763 56.5793 11.6712 56.25 12.5 56.25ZM87.5 56.25C88.3288 56.25 89.1237 56.5793 89.7097 57.1653C90.2958 57.7514 90.625 58.5462 90.625 59.375V68.75C90.6252 69.2963 90.4821 69.833 90.2102 70.3068C89.9382 70.7805 89.5468 71.1747 89.075 71.45L79.7 76.9167C79.3453 77.136 78.9503 77.282 78.5382 77.3463C78.1261 77.4105 77.7054 77.3917 77.3008 77.2908C76.8961 77.1899 76.5158 77.009 76.1821 76.7589C75.8484 76.5087 75.5682 76.1943 75.358 75.8341C75.1477 75.474 75.0117 75.0754 74.9579 74.6618C74.9041 74.2483 74.9336 73.8281 75.0447 73.4262C75.1557 73.0242 75.3462 72.6485 75.6047 72.3213C75.8632 71.9941 76.1846 71.7219 76.55 71.5208L84.375 66.9542V59.375C84.375 58.5462 84.7042 57.7514 85.2903 57.1653C85.8763 56.5793 86.6712 56.25 87.5 56.25ZM50 78.125C50.8288 78.125 51.6237 78.4542 52.2097 79.0403C52.7958 79.6263 53.125 80.4212 53.125 81.25V85.1833L57.8 82.4583C58.1547 82.2391 58.5497 82.093 58.9618 82.0287C59.3739 81.9645 59.7946 81.9833 60.1992 82.0842C60.6039 82.1851 60.9842 82.366 61.3179 82.6162C61.6516 82.8663 61.9318 83.1807 62.142 83.5409C62.3523 83.9011 62.4883 84.2997 62.5421 84.7132C62.5959 85.1268 62.5664 85.5469 62.4553 85.9489C62.3442 86.3508 62.1538 86.7265 61.8953 87.0537C61.6368 87.3809 61.3154 87.6531 60.95 87.8542L51.575 93.325C51.097 93.604 50.5535 93.7509 50 93.7509C49.4465 93.7509 48.903 93.604 48.425 93.325L39.05 87.8542C38.6846 87.6531 38.3632 87.3809 38.1047 87.0537C37.8462 86.7265 37.6557 86.3508 37.5447 85.9489C37.4336 85.5469 37.4041 85.1268 37.4579 84.7132C37.5117 84.2997 37.6477 83.9011 37.858 83.5409C38.0682 83.1807 38.3484 82.8663 38.6821 82.6162C39.0158 82.366 39.3961 82.1851 39.8008 82.0842C40.2054 81.9833 40.6261 81.9645 41.0382 82.0287C41.4503 82.093 41.8453 82.2391 42.2 82.4583L46.875 85.1833V81.25C46.875 80.4212 47.2042 79.6263 47.7903 79.0403C48.3763 78.4542 49.1712 78.125 50 78.125Z" fill="#E0DFDC"/>
</svg>
